<svg xmlns="http://www.w3.org/2000/svg" viewBox="0 0 520 360" role="img" aria-label="Resumen de entrenamiento">
  <defs>
    <linearGradient id="heroBg" x1="0" x2="1" y1="0" y2="1">
      <stop offset="0" stop-color="#1e1b4b" />
      <stop offset="1" stop-color="#312e81" />
    </linearGradient>
    <linearGradient id="heroAccent" x1="0" x2="1" y1="0" y2="1">
      <stop offset="0" stop-color="#a855f7" />
      <stop offset="1" stop-color="#7c3aed" />
    </linearGradient>
  </defs>
  <rect width="520" height="360" rx="28" fill="url(#heroBg)" />
  <rect x="40" y="50" width="220" height="140" rx="20" fill="#0b1220" stroke="#3f3a63" stroke-width="2" />
  <path d="M70 160V90" stroke="#7c3aed" stroke-width="14" stroke-linecap="round" />
  <path d="M110 160V110" stroke="#a855f7" stroke-width="14" stroke-linecap="round" />
  <path d="M150 160V80" stroke="#c084fc" stroke-width="14" stroke-linecap="round" />
  <path d="M190 160V120" stroke="#8b5cf6" stroke-width="14" stroke-linecap="round" />
  <rect x="40" y="210" width="440" height="110" rx="24" fill="#0b1220" stroke="#3f3a63" stroke-width="2" />
  <path d="M90 265h340" stroke="#3f3a63" stroke-width="10" stroke-linecap="round" />
  <rect x="130" y="240" width="260" height="18" rx="9" fill="url(#heroAccent)" />
  <rect x="100" y="230" width="28" height="38" rx="8" fill="#111827" stroke="#3f3a63" stroke-width="2" />
  <rect x="392" y="230" width="28" height="38" rx="8" fill="#111827" stroke="#3f3a63" stroke-width="2" />
  <circle cx="365" cy="105" r="36" fill="#0b1220" stroke="#3f3a63" stroke-width="2" />
  <path d="M345 105h40" stroke="url(#heroAccent)" stroke-width="6" stroke-linecap="round" />
  <path d="M365 85v40" stroke="url(#heroAccent)" stroke-width="6" stroke-linecap="round" />
</svg>
